<svg version="1.1" id="Layer_1" xmlns="http://www.w3.org/2000/svg" xmlns:xlink="http://www.w3.org/1999/xlink" x="0px" y="0px"
	 width="100%" viewBox="0 0 480 208" enable-background="new 0 0 480 208" xml:space="preserve">
<path fill="#000000" opacity="1.000000" stroke="none" 
	d="
M337.605652,123.004448 
	C335.900208,128.806641 332.045593,130.382065 326.787140,130.268555 
	C319.994659,130.121933 319.989899,130.290298 319.964355,137.226578 
	C319.957001,139.221024 319.936188,141.215744 319.960236,143.209885 
	C320.004242,146.860672 318.927155,149.238419 314.592316,149.246429 
	C310.282623,149.254410 309.786530,146.739120 309.791534,143.394440 
	C309.813965,128.435959 309.869415,113.476349 309.703217,98.519470 
	C309.654968,94.175049 311.352936,92.497566 315.621948,92.734665 
	C319.765167,92.964790 323.939972,92.642502 328.081085,92.891815 
	C333.809998,93.236687 337.875153,97.042694 338.088379,102.711716 
	C338.337494,109.334221 338.715149,115.994049 337.605652,123.004448 
M321.131409,102.796616 
	C318.781769,107.324341 320.456482,112.165489 320.059204,116.846031 
	C319.839539,119.433800 320.968140,120.829041 323.802246,120.784370 
	C326.429901,120.742958 327.870880,119.677757 327.925476,117.015984 
	C327.986359,114.048576 327.870972,111.074387 328.020996,108.112709 
	C328.246338,103.665154 326.529877,101.503532 321.131409,102.796616 
z"/>
<path fill="#000000" opacity="1.000000" stroke="none" 
	d="
M386.217834,130.865387 
	C386.220306,132.675720 386.257233,134.008972 386.219849,135.340164 
	C386.130219,138.531555 387.733612,139.806793 390.835052,139.775833 
	C393.918854,139.745056 394.870880,138.061646 394.869019,135.314087 
	C394.862366,125.487862 394.870270,115.661522 394.915497,105.835434 
	C394.930511,102.572029 395.610901,99.813438 399.793335,99.776161 
	C402.785492,99.749489 404.780396,100.963364 404.788116,104.035477 
	C404.817749,115.852501 405.062164,127.689018 404.466187,139.479843 
	C404.124512,146.240051 400.287384,148.977692 393.476471,149.195435 
	C378.855682,149.662903 376.033539,146.875839 376.048676,131.992126 
	C376.057465,123.331627 376.085266,114.671051 376.057526,106.010658 
	C376.045105,102.128677 377.196899,99.613014 381.766541,99.734612 
	C386.223541,99.853218 386.239777,102.727692 386.227203,105.904800 
	C386.194916,114.065552 386.217712,122.226509 386.217834,130.865387 
z"/>
<path fill="#000000" opacity="1.000000" stroke="none" 
	d="
M71.947334,77.002594 
	C71.955070,72.184677 71.999588,67.865814 71.959709,63.547729 
	C71.929321,60.256916 73.353394,58.710949 76.771164,58.760105 
	C84.410271,58.869984 92.052132,58.828278 99.692543,58.786629 
	C102.837479,58.769485 104.190254,60.189632 104.100914,63.353683 
	C103.686378,78.034943 88.044754,97.192772 72.753128,101.043777 
	C70.948280,93.211075 72.424339,85.296844 71.947334,77.002594 
z"/>
<path fill="#000000" opacity="1.000000" stroke="none" 
	d="
M417.262543,148.268707 
	C413.361572,146.398453 412.032196,143.231018 411.435974,139.662369 
	C410.989746,136.991653 410.512939,133.974640 414.148132,133.231827 
	C417.292938,132.589218 420.711945,132.259750 421.216553,137.009720 
	C421.552185,140.168854 423.996429,139.778870 426.137848,139.793442 
	C428.257538,139.807861 429.775635,138.929367 429.761566,136.623810 
	C429.746185,134.096420 430.867615,131.010757 427.493835,129.676910 
	C424.250702,128.394714 420.923798,127.296242 417.575867,126.314247 
	C412.953888,124.958565 410.478851,122.196770 411.001984,117.196678 
	C411.036469,116.867050 411.015991,116.531021 411.011871,116.198082 
	C410.807190,99.694763 417.012177,98.174576 432.652740,100.435104 
	C437.486542,101.133736 441.046631,108.458183 439.692200,113.151588 
	C439.000488,115.548599 437.221710,116.067375 435.082764,116.111107 
	C432.835236,116.157066 430.319489,116.122375 430.093689,113.256844 
	C429.797852,109.502800 427.678345,109.061989 424.654877,109.273735 
	C422.425903,109.429832 421.387482,110.427650 421.181122,112.645607 
	C420.886780,115.809326 421.463654,118.264862 425.094360,119.008224 
	C426.388062,119.273094 427.672516,119.727654 428.870331,120.289352 
	C432.506531,121.994507 437.981934,121.407486 439.249359,126.124901 
	C440.801880,131.903336 440.662720,137.995285 438.353271,143.774185 
	C437.115814,146.870682 434.617523,148.611145 431.507996,148.915405 
	C426.899261,149.366379 422.219269,149.822891 417.262543,148.268707 
z"/>
<path fill="#000000" opacity="1.000000" stroke="none" 
	d="
M103.656906,182.402710 
	C102.265129,184.368210 100.530266,184.223679 98.884949,184.228653 
	C91.563713,184.250809 84.241722,184.175125 76.921310,184.254730 
	C73.265770,184.294479 72.160759,183.042038 72.493790,179.129745 
	C73.850861,163.187927 87.956146,147.104599 103.834679,141.749329 
	C104.458580,155.366074 104.386024,168.672729 103.656906,182.402710 
z"/>
<path fill="#000000" opacity="1.000000" stroke="none" 
	d="
M286.723633,109.584885 
	C282.930725,116.983467 284.583374,119.726654 292.354340,119.839325 
	C295.452881,119.884247 298.995941,119.177078 299.153717,124.128746 
	C299.270691,127.799644 297.930511,129.877472 294.053467,129.853897 
	C292.888367,129.846802 291.717957,129.945160 290.558807,129.865845 
	C287.009857,129.623016 284.937256,130.613724 284.909119,134.788300 
	C284.881744,138.837982 286.593140,140.093369 290.333588,139.842529 
	C293.150848,139.653595 295.991699,139.842865 298.821106,139.801239 
	C302.086182,139.753220 303.157501,141.560715 303.169617,144.544846 
	C303.182007,147.603836 301.936157,149.217514 298.735474,149.195587 
	C292.243256,149.151093 285.750366,149.156815 279.258057,149.195496 
	C276.059906,149.214554 274.820221,147.570236 274.826752,144.527557 
	C274.855286,131.209381 274.858490,117.891006 274.814758,104.572884 
	C274.803894,101.259277 276.213196,99.687981 279.616730,99.736320 
	C285.941589,99.826141 292.269226,99.811600 298.594604,99.742317 
	C302.083160,99.704109 303.260468,101.481094 303.208130,104.735802 
	C303.157410,107.890305 301.708160,109.243752 298.602142,109.228111 
	C294.777069,109.208832 290.951111,109.356918 286.723633,109.584885 
z"/>
<path fill="#000000" opacity="1.000000" stroke="none" 
	d="
M250.963898,110.032646 
	C250.426575,111.282600 250.073059,112.235504 250.009705,113.207329 
	C249.541519,120.389236 249.895523,120.721214 257.149506,120.920715 
	C259.573334,120.987381 262.280457,120.468178 263.616669,123.448456 
	C265.300140,127.203232 263.431335,130.471252 259.315369,130.911606 
	C250.081818,131.899490 250.081818,131.899490 249.982758,141.590988 
	C249.917892,147.938950 248.806320,149.324478 244.215302,149.203751 
	C241.360474,149.128693 239.835144,147.907410 239.832718,145.007339 
	C239.821304,131.360001 239.834854,117.712631 239.808960,104.065323 
	C239.803436,101.159523 241.186234,99.780907 244.066727,99.787415 
	C250.723755,99.802444 257.380829,99.799522 264.037903,99.796227 
	C267.353760,99.794579 268.207367,101.747047 268.206757,104.683762 
	C268.206146,107.824432 266.841034,109.160316 263.697205,109.250160 
	C259.559235,109.368401 255.381577,108.679062 250.963898,110.032646 
z"/>
<path fill="#000000" opacity="1.000000" stroke="none" 
	d="
M199.142517,108.010742 
	C199.141754,116.999504 199.369461,125.499336 199.049789,133.978531 
	C198.871841,138.698715 200.678864,140.261795 205.138901,139.818787 
	C207.611465,139.573181 210.130371,139.833160 212.626022,139.770401 
	C215.564713,139.696503 216.935486,141.125763 216.898224,143.994293 
	C216.862152,146.771729 216.035080,149.070663 212.769394,149.120026 
	C206.111542,149.220688 199.451370,149.177917 192.792145,149.173874 
	C190.028687,149.172195 188.943848,147.502243 188.940445,144.997620 
	C188.918732,129.014618 188.931992,113.031578 188.930344,97.048546 
	C188.930008,93.798508 190.743423,92.782753 193.749237,92.795761 
	C196.760544,92.808807 199.113815,93.348885 199.125336,97.024521 
	C199.136292,100.520721 199.137039,104.016960 199.142517,108.010742 
z"/>
<path fill="#000000" opacity="1.000000" stroke="none" 
	d="
M357.967682,149.213150 
	C343.221436,149.100845 344.907806,150.860001 344.814484,136.309479 
	C344.748322,125.995964 344.815369,115.681641 344.766479,105.367943 
	C344.751587,102.220711 345.222168,99.804909 349.247498,99.716026 
	C353.332733,99.625832 355.020966,101.497231 355.011963,105.392120 
	C354.989655,115.040428 355.146973,124.691849 354.940369,134.335754 
	C354.853027,138.413101 356.232819,140.230774 360.389374,139.798660 
	C362.034210,139.627625 363.715668,139.846603 365.376099,139.779694 
	C368.569489,139.651031 369.938324,141.232513 369.852325,144.316284 
	C369.771606,147.210861 368.643524,149.124680 365.439026,149.154724 
	C363.110382,149.176544 360.781677,149.192886 357.967682,149.213150 
z"/>
<path fill="#000000" opacity="1.000000" stroke="none" 
	d="
M223.005844,116.012520 
	C223.038681,111.860252 223.027847,108.203979 223.116943,104.550148 
	C223.204071,100.977928 225.201996,99.694199 228.647263,99.760162 
	C232.169357,99.827583 233.228394,101.659981 233.216919,104.832619 
	C233.169418,117.960747 233.164780,131.089218 233.206863,144.217361 
	C233.217056,147.397781 232.178497,149.196289 228.625641,149.228760 
	C224.860687,149.263184 223.038559,147.662018 223.035034,143.929153 
	C223.026428,134.789291 223.015762,125.649437 223.005844,116.012520 
z"/>
</svg>